<?xml version="1.0" encoding="iso-8859-1"?>
<!-- Generator: Adobe Illustrator 18.0.0, SVG Export Plug-In . SVG Version: 6.00 Build 0)  -->
<!DOCTYPE svg PUBLIC "-//W3C//DTD SVG 1.1//EN" "http://www.w3.org/Graphics/SVG/1.1/DTD/svg11.dtd">
<svg version="1.1" id="Capa_1" xmlns="http://www.w3.org/2000/svg" xmlns:xlink="http://www.w3.org/1999/xlink" x="0px" y="0px"
	 viewBox="0 0 15 18" style="enable-background:new 0 0 15 18;" xml:space="preserve">
<g id="user_-_single_add">
	<g>
		<path fill="#2b2b2b" style="fill-rule:evenodd;clip-rule:evenodd;" d="M2.842,9.016C3.589,9.627,4.502,10,5.5,10s1.911-0.373,2.658-0.984
			C8.828,9.069,9.402,9.452,9.724,10h1.099c-0.308-0.86-0.999-1.537-1.869-1.831C9.598,7.304,10,6.21,10,5c0-2.762-2.015-5-4.5-5
			S1,2.238,1,5c0,1.21,0.403,2.305,1.046,3.169C0.86,8.569,0,9.679,0,11v2c0,1.657,1.343,3,3,3h5v-1H3c-1.105,0-2-0.895-2-2v-2
			C1,9.949,1.813,9.098,2.842,9.016z M2,5c0-2.209,1.567-4,3.5-4C7.433,1,9,2.791,9,5c0,2.209-1.567,4-3.5,4C3.567,9,2,7.209,2,5z
			 M13.5,13H12v-1.5c0-0.276-0.224-0.5-0.5-0.5c-0.276,0-0.5,0.224-0.5,0.5V13H9.5C9.224,13,9,13.224,9,13.5
			C9,13.776,9.224,14,9.5,14H11v1.5c0,0.276,0.224,0.5,0.5,0.5c0.276,0,0.5-0.223,0.5-0.5V14h1.5c0.276,0,0.5-0.224,0.5-0.5
			C14,13.224,13.776,13,13.5,13z"/>
	</g>
</g>
<g>
</g>
<g>
</g>
<g>
</g>
<g>
</g>
<g>
</g>
<g>
</g>
<g>
</g>
<g>
</g>
<g>
</g>
<g>
</g>
<g>
</g>
<g>
</g>
<g>
</g>
<g>
</g>
<g>
</g>
</svg>
