<?xml version="1.0" encoding="utf-8"?>
<!-- Generator: Adobe Illustrator 16.0.0, SVG Export Plug-In . SVG Version: 6.00 Build 0)  -->
<!DOCTYPE svg PUBLIC "-//W3C//DTD SVG 1.1//EN" "http://www.w3.org/Graphics/SVG/1.1/DTD/svg11.dtd">
<svg version="1.1" id="Layer_1" xmlns="http://www.w3.org/2000/svg" xmlns:xlink="http://www.w3.org/1999/xlink" x="0px" y="0px"
	 width="512px" height="512px" viewBox="0 0 512 512" enable-background="new 0 0 512 512" xml:space="preserve">
<g>
	<path fill='#2b2b2b' d="M411.451,153.258l-102.558-103c-3.951-3.951-7.85-3.747-7.85-3.747H136.258c-21.78,0-39.5,17.72-39.5,39.5v339.98
		c0,21.78,17.72,39.5,39.5,39.5h239.484c21.78,0,39.5-17.72,39.5-39.5c0,0,0-259.002,0-262.887S414.092,155.907,411.451,153.258z
		 M312.679,90.877l58.306,58.557h-48.9c-5.186,0-9.405-4.22-9.405-9.406V90.877z M386.242,425.991c0,5.79-4.711,10.5-10.5,10.5
		H136.258c-5.79,0-10.5-4.71-10.5-10.5V86.011c0-5.79,4.71-10.5,10.5-10.5h150.441v64.517c0,19.512,15.875,35.385,35.385,35.385
		h64.158V425.991z"/>
	<path fill='#2b2b2b' d="M159.832,288.667c0,5.522,4.478,10,10,10h172.335c5.522,0,10-4.478,10-10s-4.478-10-10-10H169.832
		C164.31,278.667,159.832,283.145,159.832,288.667z"/>
	<path fill='#2b2b2b' d="M342.167,328.667H169.832c-5.522,0-10,4.478-10,10s4.478,10,10,10h172.335c5.522,0,10-4.478,10-10
		S347.689,328.667,342.167,328.667z"/>
	<path fill='#2b2b2b' d="M342.167,378.667H169.832c-5.522,0-10,4.478-10,10s4.478,10,10,10h172.335c5.522,0,10-4.478,10-10
		S347.689,378.667,342.167,378.667z"/>
	<path fill='#2b2b2b' d="M166.075,248.662h117.039c10.908,0-9.206-47.896-9.206-47.896c-1.186-2.85-4.045-4.534-6.796-5.8l-18.509-8.52l-8.892-7.5
		l-14.099,14.021l6.294,42.079c0.022,0.148-0.016,0.3-0.104,0.421l-6.748,9.235c-0.107,0.147-0.279,0.234-0.461,0.234
		c-0.183,0-0.354-0.087-0.462-0.234l-6.747-9.235c-0.088-0.121-0.126-0.272-0.104-0.421l6.294-42.08l-14.1-14.02l-8.89,7.5
		l-18.509,8.52c-2.74,1.127-5.34,2.484-6.798,5.8C175.28,200.766,155.167,248.662,166.075,248.662z"/>
	<path fill='#2b2b2b' d="M224.593,178.676c18.934,0,33.056-17.635,33.378-47.21c0.205-20.523-9.564-32.804-33.378-32.804
		c-23.81,0-33.58,12.28-33.374,32.804C191.541,161.041,205.662,178.676,224.593,178.676z"/>
</g>
</svg>
